PathFileType	4	(X/Y/Z)	Patient4_TMGait_0pt3_02_left_17.trc.trc
DataRate	CameraRate	NumFrames	NumMarkers	Units	OrigDataRate	OrigDataStartFrame	OrigNumFrames
48.611111111111	48.611111111111	6	33	mm	48.611111111111	36	       141
Frame#	Time	Sacral			L.Shoulder			Chest			R.Shoulder			Neck			R.ASIS			L.ASIS			R.Thigh.Superior			R.Thigh.Lateral			R.Thigh.Inferior			R.Patella			L.Thigh.Superior			L.Thigh.Lateral			L.Thigh.Inferior			L.Patella			L.Shank.Superior			L.Shank.Lateral			L.Shank.Inferior			R.Shank.Superior			R.Shank.Lateral			R.Shank.Inferior			R.Heel			R.Midfoot.Superior			R.Midfoot.Lateral			R.Toe			L.Heel			L.Midfoot.Lateral			L.Midfoot.Superior			L.Toe			L.Elbow			L.Wrist			R.Elbow			R.Wrist			
		X1	Y1	Z1	X2	Y2	Z2	X3	Y3	Z3	X4	Y4	Z4	X5	Y5	Z5	X6	Y6	Z6	X7	Y7	Z7	X8	Y8	Z8	X9	Y9	Z9	X10	Y10	Z10	X11	Y11	Z11	X12	Y12	Z12	X13	Y13	Z13	X14	Y14	Z14	X15	Y15	Z15	X16	Y16	Z16	X17	Y17	Z17	X18	Y18	Z18	X19	Y19	Z19	X20	Y20	Z20	X21	Y21	Z21	X22	Y22	Z22	X23	Y23	Z23	X24	Y24	Z24	X25	Y25	Z25	X26	Y26	Z26	X27	Y27	Z27	X28	Y28	Z28	X29	Y29	Z29	X30	Y30	Z30	X31	Y31	Z31	X32	Y32	Z32	X33	Y33	Z33	

36	33.580000000000	704.000922918649	1003.459572262095	549.402526093360	843.788436282098	1421.351782033913	326.080978124160	982.544502886410	1351.429886093695	457.692085984342	947.621306388932	1433.200101906202	642.632620815636	868.372296760202	1485.798483868248	479.931185061026	947.489798857391	927.449688687348	622.641008018376	886.316620483360	954.560464599610	355.431610442328	939.460188220520	715.784285448552	591.597789794172	841.467234376327	619.082116533032	659.873122078191	894.816160434367	555.849077950651	573.256323746838	872.838337987397	465.802812459250	579.403265673222	964.846748657358	762.428576738294	386.017789789372	898.929475383395	633.776483592790	321.621048629153	1000.374080684639	572.582533880544	380.142729971733	1014.824951358527	502.786744519284	382.792630502941	995.820276299043	429.422501091952	372.669933484534	919.435268231742	307.290562632765	319.126186133095	988.062567960431	199.458033968431	380.039167158119	821.179337316188	386.446263685139	588.355137803024	728.627710516160	303.767211185137	655.941721034493	739.316321669089	203.045385603787	589.430644297072	568.731367377647	61.186282693926	563.307182148600	744.877566314879	98.976145347518	597.235804965148	652.169700572998	44.502745996912	635.465270074298	859.044676491506	37.264910852350	622.026992998642	874.846404680500	39.063604354930	415.441754849023	949.740976836036	36.422252942514	335.739769282511	1033.262287237605	97.509989135953	362.901651654925	1160.970474642235	45.137542515194	335.441621389941	708.224319515600	1091.630944187164	246.703451858651	741.994169026431	833.064496536501	266.399844538684	1163.647864812640	1184.885510295761	747.973611110593	1406.850806933731	1253.101248492211	695.556710906336	
37	33.600571428571	704.727184936766	1004.302510655351	543.372421469943	846.991285452525	1422.007252461858	321.616679205902	984.673268688424	1351.790161022034	454.245373889531	948.299903154716	1433.508390888678	638.932369755505	870.148396423105	1486.267284328616	475.892553572129	947.605583828110	927.809524316417	619.038122899615	888.920576842896	954.785493866793	351.395994115700	938.586356011684	715.982477568719	589.478143947792	839.438778163778	620.273527569244	657.596556259631	893.424005891811	556.116344775129	572.027327583975	870.827905555943	465.963604492170	578.545758608136	967.488193861448	763.190093447197	384.162581662288	902.744151376751	634.105108489345	319.195585604581	1003.678943266016	572.950741869650	378.817752726433	1018.103168728708	502.277621551835	381.701493796577	997.589755828906	428.656465846787	371.830093267909	919.409002465870	307.763370820052	318.293290209908	984.988854010265	198.842756050473	380.176092642228	818.328401644159	387.101573589319	587.601156931699	724.583017463752	305.794348409134	655.172284176035	734.969052096724	204.458415403778	589.568658127404	563.240618876089	64.136862740934	563.661530460965	739.853235442672	99.701954977201	597.719818491683	646.478690021058	45.988041057540	635.667510250750	853.075452505306	36.988076764990	622.067801907544	868.885041972560	39.288074972719	415.523118057821	943.752533980243	36.730909755980	335.889422172071	1027.486096041476	97.449934063795	363.275641066876	1155.107579196499	44.460761032368	335.499242378066	713.961844520397	1091.575104776538	239.063221864232	756.488269262659	834.212065030782	257.875955637775	1162.639350317728	1182.381397246246	743.686455470639	1410.387203603656	1238.151429794894	695.904805761201	
38	33.621142857143	705.366271697646	1005.088034673246	537.119457656814	850.423799995987	1422.613044732148	317.079371743276	986.826844223382	1352.117045052575	450.922854904538	948.739218927480	1433.803778676735	635.287700409276	871.930848656364	1486.715601833634	471.804012001016	947.554645076055	928.200919049875	615.456868348324	891.599393710272	954.909451081271	347.339501315551	937.766012970609	716.256396416441	587.357735387401	837.523371732956	621.472625872042	655.267899396404	892.265352052476	556.410551631656	570.822560466916	869.133264940886	466.070347292378	577.763469809244	969.941818486943	763.664719738297	382.092446782908	906.085012489269	634.238273041761	316.721429714593	1006.510874797187	573.062870167025	377.373687561828	1020.888672216054	501.623495331930	380.492078427022	998.877336615112	427.776847859990	370.893444167250	918.932632173793	308.077593208466	317.491053458141	981.682767934188	198.227745414032	380.247182664053	815.696483791736	387.729014672650	586.852981421238	720.696985359263	307.862161893948	654.350001412257	730.743140555764	205.894439771700	589.694267336638	557.802096410035	67.179626120325	563.979487439622	734.870112163590	100.403902403525	598.123485740622	640.816440204468	47.542910946503	635.837354313911	847.118728572485	36.759355624787	622.087402493990	862.885720964133	39.497212231070	415.635087832334	937.718755831919	37.004255500502	336.062147992798	1021.633497581756	97.414017007621	363.612745688370	1149.178761305453	43.840978299828	335.530955856311	720.285167950245	1091.479866564600	230.994989194844	771.033392667491	835.486938721935	249.124055337649	1160.902746222155	1179.316003263164	739.594837813300	1412.679956352924	1221.326066699783	696.926137786152	
39	33.641714285714	705.940212063357	1005.801182762553	530.723014747681	854.024691691822	1423.163716818503	312.504653569733	988.967216690115	1352.405624073037	447.722135786033	948.963925286248	1434.075917849035	631.707467266483	873.702684117222	1487.143314939842	467.675893196544	947.353021505240	928.614425792995	611.857127556970	894.276567216661	954.956582772829	343.245205139016	937.036448931161	716.593489341508	585.174944216064	835.804836210751	622.639176821085	652.859509339302	891.394450575208	556.701839340289	569.586605512545	867.840966178630	466.074211500903	577.037749573199	972.152725603808	763.873120661181	379.722437224544	908.859221340521	634.177878491979	314.181304961562	1008.806202979224	572.932600729925	375.743899589885	1023.097432491913	500.845561546735	379.116890210466	999.635098049658	426.804237744226	369.829928206008	917.973012461520	308.235662289941	316.687722248828	978.149831974967	197.621324930934	380.228949335775	813.346255301932	388.294183892180	586.098026878482	717.031130983637	309.949246959069	653.468875863436	726.665189159868	207.328564059340	589.795772255485	552.411435903497	70.300617939962	564.272118499899	729.940839823954	101.074135411168	598.465127363557	635.185251605252	49.150675030485	635.979910660880	841.179178775409	36.582621174158	622.080376119356	856.855079489736	39.699704718280	415.765732357284	931.649597921785	37.235932386091	336.243747345717	1015.727878146930	97.380626721372	363.899695400725	1143.196414397032	43.253645415603	335.537040811303	727.355022101533	1091.248106823611	222.588894152527	785.616961371742	836.727512011617	240.202407386979	1158.257732299878	1175.577044708346	735.820134402172	1413.293024252148	1202.581150185007	698.641939836016	
40	33.662285714286	706.469398826244	1006.431812894775	524.254941568479	857.729680400361	1423.666301335601	307.930231315495	991.055069176118	1352.657527592187	444.639659649163	948.997159387710	1434.313715699794	628.201545439714	875.444023818595	1487.554254731031	463.524459752761	947.017754451839	929.044056392808	608.200182240512	896.886882647751	954.955288693348	339.098278086631	936.441275965883	716.980022494097	582.884155789400	834.370117069280	623.732992616492	650.355446012483	890.875760088943	556.959977986672	568.276849355347	867.041656595791	465.930022492604	576.361419037919	974.089157873375	763.847199806003	377.012616972778	911.038330791579	633.940085620033	311.564500939196	1010.546995874596	572.587655168010	373.901933909653	1024.697448790067	499.967811456953	377.560986432390	999.856351961070	425.762749196038	368.631647316188	916.537700567863	308.252310064823	315.857169939529	974.404584642708	197.031539399131	380.112859813172	811.353234980020	388.767665763466	585.338776427232	713.655477416675	312.041788688531	652.533466211893	722.773173660457	208.745305810640	589.874045280406	547.073658857205	73.511420172765	564.560889102983	725.086251069616	101.702427444873	598.767768619027	629.592911509151	50.806073764384	636.109684992181	835.261215296483	36.458128289173	622.044143492184	850.799479027390	39.900786319632	415.903493731415	925.554512079216	37.426882410284	336.421935785356	1009.785874290346	97.340053857744	364.130626425441	1137.171327887027	42.693931637618	335.519905892651	735.282666285369	1090.822626567228	213.948914398532	800.260668345635	837.815853734873	231.172905036315	1154.519341175334	1171.082427830575	732.460519536216	1411.800248212067	1181.934378331341	701.054714178621	
41	33.682857142857	706.963211998172	1006.970592753233	517.773036581014	861.478075161752	1424.132547464051	303.393120132977	993.052913246237	1352.873760097989	441.672958916967	948.855257849986	1434.500286111474	624.780958447499	877.133596524664	1487.949080542801	459.372348628725	946.564984579440	929.482202040661	604.454615344456	899.379144623124	954.929091561408	334.889448367017	936.034052912961	717.398552920935	580.457030113530	833.314994346619	624.709689696252	647.750470716433	890.794236387740	557.153381738064	566.864129074573	866.837664322972	465.594895419981	575.734410597855	975.741096361372	763.620473932296	373.969656536125	912.653461189488	633.548773365437	308.868353082767	1011.755568673304	572.061782439880	371.861810957836	1025.702079377353	499.010369041542	375.841523449521	999.569270497559	424.673301387904	367.311378151913	914.667740540275	308.147480937802	314.981005836234	970.466569997181	196.462103948058	379.903577286371	809.813278031076	389.122195927947	584.588635508259	710.655588845707	314.132816429295	651.555947712460	719.122114503401	210.138960820634	589.940133329664	541.809526782145	76.856345318033	564.874746363867	720.335079635978	102.277177357788	599.055406918900	624.054768130306	52.522897064129	636.249366738778	829.366754205016	36.381658237571	621.980550539238	844.723712784393	40.101130238781	416.037349804481	919.441219842133	37.581339460340	336.586423245808	1003.817341722010	97.290421454521	364.305762843580	1131.112616015492	42.168498713394	335.483583937611	744.121072717000	1090.187081489068	205.182420066740	815.017629123994	838.688550688996	222.103520656430	1149.506251105837	1165.787673877429	729.578265492153	1407.803321703975	1159.472843708701	704.143317478038	
